<mxfile host="app.diagrams.net" modified="2023-10-09T11:42:13.988Z" agent="Mozilla/5.0 (Macintosh; Intel Mac OS X 10_15_7) AppleWebKit/537.36 (KHTML, like Gecko) Chrome/117.0.0.0 Safari/537.36" etag="JEt59QOE0JSEhQf8rMgH" version="22.0.4" type="github">
  <diagram name="Page-1" id="82e54ff1-d628-8f03-85c4-9753963a91cd">
    <mxGraphModel dx="1026" dy="576" grid="1" gridSize="10" guides="1" tooltips="1" connect="1" arrows="1" fold="1" page="1" pageScale="1" pageWidth="1100" pageHeight="850" background="none" math="0" shadow="0">
      <root>
        <mxCell id="0" />
        <mxCell id="1" parent="0" />
        <mxCell id="HPn7pcrWQ9wSCG8BuI6V-1" value="" style="rounded=1;whiteSpace=wrap;html=1;" parent="1" vertex="1">
          <mxGeometry x="30" y="219" width="1020" height="360" as="geometry" />
        </mxCell>
        <mxCell id="4ec97bd9e5d20128-1" value="" style="line;strokeWidth=2;html=1;fillColor=none;fontSize=28;fontColor=#004D99;strokeColor=#004D99;" parent="1" vertex="1">
          <mxGeometry x="40" y="400" width="1000" height="10" as="geometry" />
        </mxCell>
        <mxCell id="4ec97bd9e5d20128-5" value="Stage 1" style="shape=offPageConnector;whiteSpace=wrap;html=1;fillColor=#0075E8;fontSize=15;fontColor=#FFFFFF;size=0.5093750000000015;verticalAlign=top;strokeColor=none;" parent="1" vertex="1">
          <mxGeometry x="120" y="340" width="160" height="40" as="geometry" />
        </mxCell>
        <mxCell id="4ec97bd9e5d20128-6" value="&lt;span&gt;Stage 3&lt;/span&gt;" style="shape=offPageConnector;whiteSpace=wrap;html=1;fillColor=#0075E8;fontSize=15;fontColor=#FFFFFF;size=0.5093750000000015;verticalAlign=top;strokeColor=none;" parent="1" vertex="1">
          <mxGeometry x="573" y="340" width="160" height="40" as="geometry" />
        </mxCell>
        <mxCell id="4ec97bd9e5d20128-7" value="&lt;span&gt;Stage 2&lt;/span&gt;" style="shape=offPageConnector;whiteSpace=wrap;html=1;fillColor=#0075E8;fontSize=15;fontColor=#FFFFFF;size=0.4178571428571445;flipV=1;verticalAlign=bottom;strokeColor=none;spacingBottom=4;" parent="1" vertex="1">
          <mxGeometry x="347" y="425" width="160" height="35" as="geometry" />
        </mxCell>
        <mxCell id="4ec97bd9e5d20128-8" value="&lt;span&gt;Stage 4&lt;/span&gt;" style="shape=offPageConnector;whiteSpace=wrap;html=1;fillColor=#0075E8;fontSize=15;fontColor=#FFFFFF;size=0.4178571428571445;flipV=1;verticalAlign=bottom;strokeColor=none;spacingBottom=4;" parent="1" vertex="1">
          <mxGeometry x="816.5" y="425" width="160" height="35" as="geometry" />
        </mxCell>
        <mxCell id="4ec97bd9e5d20128-9" value="" style="ellipse;whiteSpace=wrap;html=1;fillColor=#61BAFF;fontSize=28;fontColor=#004D99;strokeWidth=3;strokeColor=#004D99;" parent="1" vertex="1">
          <mxGeometry x="190" y="395" width="20" height="20" as="geometry" />
        </mxCell>
        <mxCell id="4ec97bd9e5d20128-10" value="" style="ellipse;whiteSpace=wrap;html=1;fillColor=#61BAFF;fontSize=28;fontColor=#004D99;strokeWidth=3;strokeColor=#004D99;" parent="1" vertex="1">
          <mxGeometry x="417" y="395" width="20" height="20" as="geometry" />
        </mxCell>
        <mxCell id="4ec97bd9e5d20128-11" value="" style="ellipse;whiteSpace=wrap;html=1;fillColor=#61BAFF;fontSize=28;fontColor=#004D99;strokeWidth=3;strokeColor=#004D99;" parent="1" vertex="1">
          <mxGeometry x="643" y="395" width="20" height="20" as="geometry" />
        </mxCell>
        <mxCell id="4ec97bd9e5d20128-13" value="" style="ellipse;whiteSpace=wrap;html=1;fillColor=#61BAFF;fontSize=28;fontColor=#004D99;strokeWidth=3;strokeColor=#004D99;" parent="1" vertex="1">
          <mxGeometry x="886.5" y="390" width="20" height="20" as="geometry" />
        </mxCell>
        <mxCell id="4ec97bd9e5d20128-14" value="&lt;h1&gt;&lt;font style=&quot;font-size: 18px;&quot;&gt;Manual Data Load&lt;/font&gt;&lt;/h1&gt;&lt;p&gt;Consultant will load data in check table from DP layer by manual click and will select check option based on data in check table.&lt;/p&gt;" style="text;html=1;spacing=5;spacingTop=-20;whiteSpace=wrap;overflow=hidden;strokeColor=#82b366;strokeWidth=3;fillColor=#d5e8d4;fontSize=13;align=center;rounded=1;" parent="1" vertex="1">
          <mxGeometry x="93" y="430" width="215" height="120" as="geometry" />
        </mxCell>
        <mxCell id="4ec97bd9e5d20128-16" value="&lt;h1&gt;&lt;font style=&quot;font-size: 18px;&quot;&gt;Check Evaluation&lt;/font&gt;&lt;/h1&gt;&lt;p&gt;Once data is loaded in table, system should be able to decide check option on it&#39;s own as per rules defined in Authoring.&lt;/p&gt;" style="text;html=1;spacing=5;spacingTop=-20;whiteSpace=wrap;overflow=hidden;strokeColor=#6c8ebf;strokeWidth=3;fillColor=#dae8fc;fontSize=13;align=center;rounded=1;" parent="1" vertex="1">
          <mxGeometry x="319" y="250" width="215" height="120" as="geometry" />
        </mxCell>
        <mxCell id="4ec97bd9e5d20128-17" value="&lt;h1&gt;&lt;font style=&quot;font-size: 18px;&quot;&gt;Mass Check Evaluation&lt;/font&gt;&lt;/h1&gt;&lt;p&gt;System should be able to load data in table for all the checks in session and assign check option&lt;/p&gt;" style="text;html=1;spacing=5;spacingTop=-20;whiteSpace=wrap;overflow=hidden;strokeColor=#6c8ebf;strokeWidth=3;fillColor=#dae8fc;fontSize=13;align=center;rounded=1;" parent="1" vertex="1">
          <mxGeometry x="545" y="430" width="215" height="120" as="geometry" />
        </mxCell>
        <mxCell id="4ec97bd9e5d20128-18" value="&lt;h1&gt;&lt;font style=&quot;font-size: 18px;&quot;&gt;Session Auto Configuration&lt;/font&gt;&lt;/h1&gt;&lt;p&gt;System should allow automatic session configuration based on scope object available in Service Delivery Center and and Authoring content.&amp;nbsp;&lt;/p&gt;" style="text;html=1;spacing=5;spacingTop=-20;whiteSpace=wrap;overflow=hidden;strokeColor=#6c8ebf;strokeWidth=3;fillColor=#dae8fc;fontSize=13;align=center;rounded=1;" parent="1" vertex="1">
          <mxGeometry x="773" y="250" width="247" height="120" as="geometry" />
        </mxCell>
      </root>
    </mxGraphModel>
  </diagram>
</mxfile>
